<svg id="Слой_1" data-name="Слой 1" xmlns="http://www.w3.org/2000/svg" xmlns:xlink="http://www.w3.org/1999/xlink" viewBox="0 0 70.87 70.87"><defs><style>.cls-1{fill:none;}.cls-2{clip-path:url(#clip-path);}.cls-3{fill:#68c7eb;}.cls-4{fill:#fbbb28;}.cls-5{fill:#e6740f;}</style><clipPath id="clip-path"><circle class="cls-1" cx="34.55" cy="35.71" r="26.68"/></clipPath></defs><title>логоМонтажная область 4</title><g id="Слой_2_копия_" data-name="Слой 2 (копия)"><g class="cls-2"><path class="cls-3" d="M27.33,13.15s-2.68,26.6,13,32.76c6.48,2.78,14.41-1.39,14.41-1.39.12,1.81.54,10.82-6,18-8.8,9.61-22,7.1-23.71,6.74C15.75,67.35,5.82,59.9,5.91,52.42c0-1.34.58-2.32.5-2.79C3.18,30.27,27.33,13.15,27.33,13.15Z"/><path class="cls-3" d="M35,15.06,46,12c-1.51,4.06-12,25.7,3.66,32.72-4.86,1.09-7.81-.06-9.15-.77C33.59,40.34,30.55,28.47,35,15.06Z"/></g><path class="cls-4" d="M22.87,45.07v-.18c.08,0,.11-.07.09-.14.29-.36.58-.73.88-1.08.53-.63,1.07-1.25,1.61-1.88S26.47,40.6,27,40l1.74-2c.4-.48.79-1,1.2-1.43s.72-.83,1.08-1.25.77-.91,1.15-1.36.83-1,1.26-1.46l1-1.15c.41-.48.83-1,1.24-1.45s1-1.18,1.49-1.76,1.12-1.33,1.69-2c.4-.44.77-.9,1.15-1.36l1.65-1.94,1.22-1.44c.42-.48.84-1,1.26-1.47.2-.22.38-.47.6-.68a.24.24,0,0,1,.2.06l.55.46c.27.24.55.46.82.69l1,.89.92.78.91.77.89.76.67.57.9.75a.24.24,0,0,1,.07.31c-.32.34-.58.74-.92,1.07-.17.17-.29.4-.46.57-.33.33-.57.73-.91,1.05s-.34.44-.53.63c-.32.34-.57.73-.89,1.06s-.67.77-1,1.15-.68.81-1,1.21l-1,1.17c-.4.47-.79.95-1.2,1.42s-.67.77-1,1.17-.63.75-.95,1.13a15.17,15.17,0,0,1-1.06,1.22c-.2.19-.33.45-.53.65-.36.37-.68.77-1,1.16s-.64.76-1,1.13a15.47,15.47,0,0,1-1,1.23c-.21.19-.35.45-.54.66-.36.37-.68.77-1,1.17s-.63.75-1,1.12a13.75,13.75,0,0,1-1.06,1.23c-.21.2-.35.45-.54.66-.35.38-.68.77-1,1.17s-.71.82-1.05,1.23a9.16,9.16,0,0,1-1,1.15.72.72,0,0,1-.36.18,4.56,4.56,0,0,1-.65-.51c-.35-.29-.69-.59-1-.89l-1.12-.92c-.38-.32-.74-.66-1.12-1s-.84-.69-1.25-1.05l-1.2-1C23.12,45.37,22.93,45.28,22.87,45.07Z"/><path class="cls-4" d="M46.38,17.2a3.19,3.19,0,0,1,.46-.57c.42-.51.86-1,1.29-1.52s.67-.79,1-1.18.79-1,1.2-1.44a4.22,4.22,0,0,1,.87-.87,2.31,2.31,0,0,1,1.25-.49,3,3,0,0,1,1,0,2.43,2.43,0,0,1,.9.36h.08c0,.08.09.16.15.17a1.33,1.33,0,0,1,.57.41c.34.32.71.6,1,.92s.92.7,1.3,1.13c0,.06.09.14.19.14.11.23.29.43.39.67a3,3,0,0,1,.28,1,2.79,2.79,0,0,1-.13,1.19,3.8,3.8,0,0,1-.65,1.09q-.29.38-.6.72a5.34,5.34,0,0,1-.59.67c-.17.14-.26.36-.42.52-.4.41-.73.88-1.12,1.3s-.51.61-.75.91-.49.56-.73.83c-.11,0-.18-.06-.24-.12l-.61-.53-2.78-2.35L47,17.79A4,4,0,0,1,46.38,17.2Z"/><path class="cls-5" d="M22.87,45.07c.06.21.25.3.39.42l1.2,1c.41.36.84.69,1.25,1.05s.74.65,1.12,1l1.12.92c.34.3.68.6,1,.89a4.56,4.56,0,0,0,.65.51c-.15.18-6.32,2.31-6.69,2.44-.62,0-1.35.16-1.35.16a2.2,2.2,0,0,1,0-1,3.55,3.55,0,0,0,.08-.47c0-.35.13-.69.16-1A6.14,6.14,0,0,1,22,50a3.82,3.82,0,0,0,.09-.59,5.64,5.64,0,0,1,.15-.82c.08-.38.12-.77.19-1.15s.12-.67.17-1a4.56,4.56,0,0,1,.2-1,.71.71,0,0,0,0-.29C22.78,45.15,22.79,45.09,22.87,45.07Z"/><path class="cls-4" d="M46.38,17.2a4,4,0,0,0,.65.59l2.76,2.35,2.78,2.35.61.53c.06.06.13.14.24.12a3.74,3.74,0,0,1-.53.66c-.39.48-.83.93-1.19,1.44,0,0-.05,0-.08,0a.24.24,0,0,0-.07-.31l-.9-.75L50,23.63l-.89-.76-.91-.77-.92-.78-1-.89c-.27-.23-.55-.45-.82-.69l-.55-.46a.24.24,0,0,0-.2-.06,6.12,6.12,0,0,1,.5-.64c.26-.3.51-.6.78-.9A3.34,3.34,0,0,1,46.38,17.2Z"/><path class="cls-5" d="M57.74,14.27c-.1,0-.15-.08-.19-.14-.38-.43-.88-.74-1.3-1.13s-.71-.6-1-.92a1.33,1.33,0,0,0-.57-.41c-.06,0-.12-.09-.15-.17a10.26,10.26,0,0,0,.75-.86c.32-.34.6-.72.92-1.07a4,4,0,0,1,.43-.49,2,2,0,0,1,.7-.42,1.4,1.4,0,0,0,.37-.14.33.33,0,0,1,.24,0,4.1,4.1,0,0,1,1.25.38A2,2,0,0,1,60,9.92a2.22,2.22,0,0,1,0,1.44A4.6,4.6,0,0,1,59,12.68c-.41.51-.84,1-1.26,1.5A.32.32,0,0,0,57.74,14.27Z"/></g></svg>