<svg id="Слой_1" data-name="Слой 1" xmlns="http://www.w3.org/2000/svg" xmlns:xlink="http://www.w3.org/1999/xlink" viewBox="0 0 70.87 70.87"><defs><style>.cls-1{fill:none;}.cls-2{clip-path:url(#clip-path);}.cls-3{fill:#fff;}.cls-4{fill:#fbbb28;}.cls-5{fill:#e6740f;}</style><clipPath id="clip-path"><circle class="cls-1" cx="34.24" cy="35.71" r="26.68"/></clipPath></defs><title>whitelogo</title><g id="Слой_2_копия_2" data-name="Слой 2 копия 2"><g class="cls-2"><path class="cls-3" d="M27,13.15s-2.68,26.6,13,32.76c6.48,2.78,14.41-1.39,14.41-1.39.12,1.81.54,10.82-6,18-8.8,9.61-22,7.1-23.71,6.74C15.44,67.35,5.5,59.9,5.59,52.42c0-1.34.59-2.32.51-2.79C2.86,30.27,27,13.15,27,13.15Z"/><path class="cls-3" d="M34.68,15.06l11-3.06c-1.51,4.06-12,25.7,3.66,32.72-4.86,1.09-7.81-.06-9.15-.77C33.28,40.34,30.24,28.47,34.68,15.06Z"/></g><path class="cls-4" d="M22.56,45.07v-.18a.11.11,0,0,0,.09-.14c.29-.36.58-.73.88-1.08.53-.63,1.07-1.25,1.61-1.88s1-1.19,1.53-1.79l1.74-2c.4-.48.79-1,1.2-1.43s.72-.83,1.08-1.25.77-.91,1.15-1.36.83-1,1.25-1.46.65-.77,1-1.15.83-1,1.24-1.45,1-1.18,1.49-1.76,1.12-1.33,1.69-2c.39-.44.77-.9,1.15-1.36l1.65-1.94,1.22-1.44c.42-.48.83-1,1.26-1.47.2-.22.38-.47.6-.68a.25.25,0,0,1,.2.06l.55.46c.27.24.55.46.82.69s.68.6,1,.89l.92.78.91.77.89.76.67.57.9.75a.24.24,0,0,1,.07.31c-.32.34-.58.74-.92,1.07-.18.17-.29.4-.47.57-.32.33-.57.73-.91,1.05s-.33.44-.52.63c-.32.34-.57.73-.89,1.06s-.67.77-1,1.15l-1,1.21-1,1.17c-.4.47-.79.95-1.2,1.42s-.68.77-1,1.17-.63.75-1,1.13-.67.85-1.06,1.22c-.2.19-.33.45-.53.65-.36.37-.68.77-1,1.16s-.64.76-1,1.13a15.47,15.47,0,0,1-1.05,1.23c-.21.19-.35.45-.55.66-.35.37-.68.77-1,1.17s-.63.75-1,1.12a15.59,15.59,0,0,1-1.06,1.23c-.21.2-.35.45-.54.66-.35.38-.68.77-1,1.17s-.7.82-1,1.23a9.16,9.16,0,0,1-1,1.15.72.72,0,0,1-.36.18,4.65,4.65,0,0,1-.66-.51l-1-.89-1.12-.92c-.38-.32-.75-.66-1.12-1s-.85-.69-1.26-1.05l-1.19-1C22.81,45.37,22.62,45.28,22.56,45.07Z"/><path class="cls-4" d="M46.07,17.2a3.65,3.65,0,0,1,.45-.57c.43-.51.86-1,1.3-1.52s.67-.79,1-1.18.8-1,1.21-1.44a4.22,4.22,0,0,1,.87-.87,2.28,2.28,0,0,1,1.25-.49,2.91,2.91,0,0,1,1,0,2.41,2.41,0,0,1,.91.36h.08c0,.08.09.16.15.17a1.39,1.39,0,0,1,.57.41c.34.32.71.6,1,.92s.91.7,1.3,1.13c0,.06.09.14.18.14.12.23.3.43.4.67a3.27,3.27,0,0,1,.28,1A2.79,2.79,0,0,1,58,17.1a3.8,3.8,0,0,1-.65,1.09q-.28.38-.6.72a5.34,5.34,0,0,1-.59.67c-.17.14-.26.36-.42.52-.4.41-.73.88-1.12,1.3s-.51.61-.76.91-.48.56-.72.83c-.12,0-.18-.06-.25-.12s-.4-.36-.61-.53l-2.77-2.35c-.92-.78-1.85-1.56-2.76-2.35A4,4,0,0,1,46.07,17.2Z"/><path class="cls-5" d="M22.56,45.07c.06.21.25.3.39.42l1.19,1c.41.36.84.69,1.26,1.05s.74.65,1.12,1l1.12.92,1,.89a4.65,4.65,0,0,0,.66.51c-.15.18-6.33,2.31-6.69,2.44-.62,0-1.35.16-1.35.16a2.2,2.2,0,0,1,0-1,3.55,3.55,0,0,0,.08-.47c0-.35.13-.69.16-1a5.12,5.12,0,0,1,.19-.93,3.82,3.82,0,0,0,.09-.59,5.64,5.64,0,0,1,.15-.82c.08-.38.12-.77.19-1.15s.12-.67.17-1a4.56,4.56,0,0,1,.2-1,.71.71,0,0,0,0-.29C22.47,45.15,22.48,45.09,22.56,45.07Z"/><path class="cls-4" d="M46.07,17.2a4,4,0,0,0,.65.59c.91.79,1.84,1.57,2.76,2.35l2.77,2.35c.21.17.41.35.61.53s.13.14.25.12a4.94,4.94,0,0,1-.53.66c-.39.48-.84.93-1.2,1.44,0,0,0,0-.07,0a.24.24,0,0,0-.07-.31l-.9-.75-.67-.57-.89-.76-.91-.77L47,21.32c-.35-.29-.69-.59-1-.89s-.55-.45-.82-.69l-.55-.46a.25.25,0,0,0-.2-.06,6.12,6.12,0,0,1,.5-.64l.77-.9A3.41,3.41,0,0,1,46.07,17.2Z"/><path class="cls-5" d="M57.42,14.27c-.09,0-.14-.08-.18-.14-.39-.43-.88-.74-1.3-1.13s-.71-.6-1-.92a1.39,1.39,0,0,0-.57-.41c-.06,0-.12-.09-.15-.17a10.26,10.26,0,0,0,.75-.86c.32-.34.6-.72.92-1.07a4.93,4.93,0,0,1,.42-.49A2.15,2.15,0,0,1,57,8.66a1.4,1.4,0,0,0,.37-.14.32.32,0,0,1,.24,0,4.1,4.1,0,0,1,1.25.38,2,2,0,0,1,.84,1.06,2.16,2.16,0,0,1,0,1.44,5,5,0,0,1-.94,1.32c-.41.51-.84,1-1.26,1.5C57.44,14.21,57.44,14.24,57.42,14.27Z"/></g></svg>